<svg width="24" height="40" viewBox="0 0 24 40" fill="none" xmlns="http://www.w3.org/2000/svg">
<mask id="path-1-inside-1_386_3359" fill="white">
<path d="M0 12C0 5.37258 5.37258 0 12 0C18.6274 0 24 5.37258 24 12V28C24 34.6274 18.6274 40 12 40C5.37258 40 0 34.6274 0 28V12Z"/>
</mask>
<path d="M12 0M24 12H22.7321V28H24H25.2679V12H24ZM12 40M0 28H1.2679V12H0H-1.2679V28H0ZM12 40V38.7321C6.07282 38.7321 1.2679 33.9272 1.2679 28H0H-1.2679C-1.2679 35.3277 4.67234 41.2679 12 41.2679V40ZM24 28H22.7321C22.7321 33.9272 17.9272 38.7321 12 38.7321V40V41.2679C19.3277 41.2679 25.2679 35.3277 25.2679 28H24ZM12 0V1.2679C17.9272 1.2679 22.7321 6.07283 22.7321 12H24H25.2679C25.2679 4.67234 19.3277 -1.2679 12 -1.2679V0ZM12 0V-1.2679C4.67234 -1.2679 -1.2679 4.67234 -1.2679 12H0H1.2679C1.2679 6.07283 6.07282 1.2679 12 1.2679V0Z" fill="white" fill-opacity="0.3" mask="url(#path-1-inside-1_386_3359)"/>
<path d="M10 11.2422C10 10.1376 10.8954 9.24219 12 9.24219C13.1046 9.24219 14 10.1376 14 11.2422V15.2422C14 16.3468 13.1046 17.2422 12 17.2422C10.8954 17.2422 10 16.3468 10 15.2422V11.2422Z" fill="white" fill-opacity="0.6"/>
</svg>
